<svg width="81" height="81" viewBox="0 0 81 81" fill="none" xmlns="http://www.w3.org/2000/svg">
<ellipse cx="40.834" cy="40.0416" rx="40" ry="40.0128" fill="#FF652F"/>
<path d="M41.6464 52.7581C41.3797 52.7581 41.1397 52.6647 40.9264 52.4781C40.7397 52.2914 40.6464 52.0514 40.6464 51.7581V32.7181L35.1664 36.9181C34.9264 37.1047 34.6731 37.1714 34.4064 37.1181C34.1664 37.0647 33.9531 36.9181 33.7664 36.6781L31.4064 33.5981C31.2464 33.3581 31.1797 33.1047 31.2064 32.8381C31.2597 32.5447 31.4197 32.3181 31.6864 32.1581L40.8864 25.0381C41.0464 24.9314 41.1931 24.8647 41.3264 24.8381C41.4864 24.7847 41.6597 24.7581 41.8464 24.7581H46.8464C47.1131 24.7581 47.3397 24.8514 47.5264 25.0381C47.7397 25.2247 47.8464 25.4647 47.8464 25.7581V51.7581C47.8464 52.0514 47.7397 52.2914 47.5264 52.4781C47.3397 52.6647 47.1131 52.7581 46.8464 52.7581H41.6464Z" fill="white"/>
</svg>
