<svg width="80" height="80" viewBox="0 0 80 80" fill="none" xmlns="http://www.w3.org/2000/svg">
<circle cx="40" cy="40" r="40" fill="#FF652F"/>
<path d="M28.679 52.0056C28.3857 52.0056 28.1324 51.9123 27.919 51.7256C27.7324 51.5389 27.639 51.2989 27.639 51.0056V48.1656C27.639 47.9789 27.6924 47.6989 27.799 47.3256C27.9057 46.9256 28.1857 46.5523 28.639 46.2056L32.799 42.1256C34.9324 40.4989 36.679 39.1256 38.039 38.0056C39.4257 36.8589 40.4524 35.8456 41.119 34.9656C41.7857 34.0856 42.119 33.2589 42.119 32.4856C42.119 31.5789 41.879 30.8323 41.399 30.2456C40.9457 29.6323 40.1457 29.3256 38.999 29.3256C38.2257 29.3256 37.5724 29.4989 37.039 29.8456C36.5324 30.1656 36.1457 30.5923 35.879 31.1256C35.6124 31.6589 35.4257 32.2056 35.319 32.7656C35.2124 33.1123 35.0257 33.3523 34.759 33.4856C34.519 33.6189 34.2524 33.6856 33.959 33.6856H28.959C28.719 33.6856 28.519 33.6056 28.359 33.4456C28.199 33.2856 28.119 33.0856 28.119 32.8456C28.1457 31.5656 28.4124 30.3656 28.919 29.2456C29.4524 28.1256 30.1857 27.1389 31.119 26.2856C32.079 25.4056 33.2124 24.7256 34.519 24.2456C35.8524 23.7656 37.3457 23.5256 38.999 23.5256C41.2657 23.5256 43.1857 23.8856 44.759 24.6056C46.359 25.3256 47.5724 26.3389 48.399 27.6456C49.2257 28.9256 49.639 30.4323 49.639 32.1656C49.639 33.4723 49.3457 34.6989 48.759 35.8456C48.199 36.9656 47.3857 38.0456 46.319 39.0856C45.279 40.0989 44.039 41.1523 42.599 42.2456L38.919 45.9656H49.199C49.4924 45.9656 49.7324 46.0589 49.919 46.2456C50.1324 46.4323 50.239 46.6723 50.239 46.9656V51.0056C50.239 51.2989 50.1324 51.5389 49.919 51.7256C49.7324 51.9123 49.4924 52.0056 49.199 52.0056H28.679Z" fill="white"/>
</svg>
