<svg width="80" height="80" viewBox="0 0 80 80" fill="none" xmlns="http://www.w3.org/2000/svg">
<circle cx="40" cy="40" r="40" fill="#FF652F"/>
<path d="M39.499 54.4056C37.419 54.4056 35.6457 54.1656 34.179 53.6856C32.7124 53.1789 31.5124 52.5389 30.579 51.7656C29.6457 50.9656 28.9524 50.1256 28.499 49.2456C28.0457 48.3389 27.8057 47.4723 27.779 46.6456C27.779 46.4056 27.859 46.2056 28.019 46.0456C28.2057 45.8856 28.419 45.8056 28.659 45.8056H33.859C34.179 45.8056 34.4324 45.8723 34.619 46.0056C34.8057 46.1123 34.979 46.2989 35.139 46.5656C35.3524 47.0723 35.659 47.4856 36.059 47.8056C36.4857 48.1256 36.9924 48.3523 37.579 48.4856C38.1657 48.5923 38.8057 48.6456 39.499 48.6456C40.859 48.6456 41.9124 48.3389 42.659 47.7256C43.4324 47.0856 43.819 46.2189 43.819 45.1256C43.819 43.9789 43.459 43.1656 42.739 42.6856C42.019 42.1789 40.9924 41.9256 39.659 41.9256H35.219C34.9257 41.9256 34.6857 41.8323 34.499 41.6456C34.3124 41.4589 34.219 41.2189 34.219 40.9256V38.6856C34.219 38.3656 34.2857 38.0856 34.419 37.8456C34.5524 37.6056 34.699 37.4323 34.859 37.3256L41.419 31.7656H30.299C30.0324 31.7656 29.7924 31.6723 29.579 31.4856C29.3924 31.2989 29.299 31.0589 29.299 30.7656V27.0056C29.299 26.7123 29.3924 26.4723 29.579 26.2856C29.7924 26.0989 30.0324 26.0056 30.299 26.0056H48.699C48.9924 26.0056 49.2324 26.0989 49.419 26.2856C49.6324 26.4723 49.739 26.7123 49.739 27.0056V30.4056C49.739 30.6989 49.6724 30.9656 49.539 31.2056C49.4057 31.4189 49.259 31.5923 49.099 31.7256L43.019 37.3656L43.299 37.4456C44.819 37.6323 46.179 38.0456 47.379 38.6856C48.579 39.2989 49.5257 40.1656 50.219 41.2856C50.9124 42.4056 51.259 43.8323 51.259 45.5656C51.259 47.3789 50.739 48.9523 49.699 50.2856C48.6857 51.5923 47.299 52.6056 45.539 53.3256C43.779 54.0456 41.7657 54.4056 39.499 54.4056Z" fill="white"/>
</svg>
